<?xml version="1.0" standalone="no"?><!DOCTYPE svg PUBLIC "-//W3C//DTD SVG 1.1//EN" "http://www.w3.org/Graphics/SVG/1.1/DTD/svg11.dtd"><svg t="1589553493000" class="icon" viewBox="0 0 1024 1024" version="1.1" xmlns="http://www.w3.org/2000/svg" p-id="2602" xmlns:xlink="http://www.w3.org/1999/xlink" width="200" height="200"><defs><style type="text/css"></style></defs><path d="M512 64a448 448 0 1 1 0 896A448 448 0 0 1 512 64z m0 64a384 384 0 1 0 0 768A384 384 0 0 0 512 128zM360.32 314.88l4.48 3.776 148.224 148.224 148.288-148.224a32 32 0 0 1 48.96 40.768l-3.712 4.48-148.288 148.224 148.288 148.288a32 32 0 0 1-40.832 48.96l-4.416-3.712-148.288-148.288L364.8 705.664a32 32 0 0 1-48.96-40.832l3.712-4.48 148.224-148.224-148.224-148.224a32 32 0 0 1 40.832-48.96z" p-id="2603" fill="#fa5151"></path></svg>